#!OML:ASF E:\Mandelcareful walks\Project 1\Capture day 1\Session 1\Subject1.ASF
:FULLY-SPECIFIED
:DEGREES
526
root 0.101187 16.0298 1.46435 -412.309 93.1926 -420.998
lowerback 30.869 0.322709 -1.59247
upperback 6.92475 0.593319 -0.0817985
thorax -9.11724 0.591752 0.563156
lowerneck -26.9543 0.551078 -3.0906
upperneck 25.1116 2.98008 -2.29416
head 12.8793 0.718748 0.186423
rclavicle 7.35503e-015 2.8625e-014
rhumerus -16.6506 4.63825 -80.6589
rradius 49.4672
rwrist -18.5052
rhand -14.9116 -25.296
rfingers 7.12502
rthumb 11.25 -54.9743
lclavicle 7.35503e-015 2.8625e-014
lhumerus -15.0881 -11.7679 86.2234
lradius 41.8254
lwrist 17.692
lhand -22.4921 -11.4598
lfingers 7.12502
lthumb 3.93361 18.4836
rfemur -34.9986 -10.7463 13.1922
rtibia 48.8452
rfoot -19.7952 -4.15616
rtoes -0.511914
lfemur -30.5783 8.96282 -15.9159
ltibia 49.61
lfoot -23.2055 -1.52917
ltoes 2.31893
527
root 0.115184 16.0363 1.46268 -406.681 93.4913 -415.182
lowerback 30.9751 0.145019 -1.52693
upperback 6.98105 0.396783 -0.107916
thorax -9.09869 0.503619 0.568146
lowerneck -26.9898 0.634309 -2.81935
upperneck 25.0888 3.01876 -2.41343
head 12.8828 0.744808 0.102543
rclavicle 0 -3.97569e-016
rhumerus -16.6139 4.64504 -80.7417
rradius 49.4628
rwrist -18.6
rhand -14.8661 -25.8937
rfingers 7.12502
rthumb 11.2939 -55.5697
lclavicle 0 -3.97569e-016
lhumerus -14.9872 -11.9364 86.1376
lradius 41.6782
lwrist 17.9473
lhand -22.5243 -11.694
lfingers 7.12502
lthumb 3.90252 18.25
rfemur -34.5723 -11.017 13.0852
rtibia 48.8115
rfoot -19.918 -4.28597
rtoes -0.760733
lfemur -30.3308 8.55566 -15.9033
ltibia 49.5513
lfoot -23.2492 -1.64188
ltoes 2.38781
528
root 0.118591 16.0349 1.45561 -408.225 93.422 -416.763
lowerback 30.9403 0.20324 -1.56344
upperback 6.95978 0.453544 -0.126818
thorax -9.10757 0.529183 0.546938
lowerneck -27.0335 0.725307 -2.61267
upperneck 25.0677 3.1373 -2.65455
head 12.8918 0.782568 -0.00288084
rclavicle 0 2.14687e-014
rhumerus -16.6221 4.70382 -80.6738
rradius 49.5257
rwrist -18.7084
rhand -14.7152 -26.2445
rfingers 7.12502
rthumb 11.4394 -55.9125
lclavicle 0 2.14687e-014
lhumerus -14.9558 -12.1032 86.1384
lradius 41.6007
lwrist 18.1732
lhand -22.5697 -12.0181
lfingers 7.12502
lthumb 3.85866 17.9267
rfemur -34.6326 -10.9865 13.0735
rtibia 48.7902
rfoot -19.8607 -4.24976
rtoes -0.947202
lfemur -30.3313 8.61906 -15.9355
ltibia 49.5576
lfoot -23.2301 -1.56788
ltoes 1.67812
529
root 0.123845 16.0343 1.44409 -409.254 93.2695 -417.805
lowerback 30.8987 0.259541 -1.4396
upperback 6.97338 0.566964 -0.0893835
thorax -9.07466 0.579045 0.47563
lowerneck -27.0737 0.695775 -2.63759
upperneck 25.0285 3.17077 -2.85353
head 12.8894 0.767266 -0.0694284
rclavicle 1.63003e-014 1.78906e-014
rhumerus -16.6056 4.66344 -80.4874
rradius 49.6419
rwrist -18.7025
rhand -14.522 -26.4505
rfingers 7.12502
rthumb 11.6258 -56.108
lclavicle 1.63003e-014 1.78906e-014
lhumerus -14.898 -12.2544 86.2598
lradius 41.5239
lwrist 18.2596
lhand -22.6454 -12.3541
lfingers 7.12502
lthumb 3.78556 17.5921
rfemur -34.6576 -10.9745 13.136
rtibia 48.7752
rfoot -19.8343 -4.11479
rtoes -0.645341
lfemur -30.3179 8.69282 -15.892
ltibia 49.6011
lfoot -23.3015 -1.48477
ltoes 1.7372
530
root 0.126585 16.0328 1.4353 -409.608 93.15 -418.234
lowerback 30.8022 0.294938 -1.34202
upperback 6.99204 0.646343 -0.0510082
thorax -9.00878 0.613379 0.434058
lowerneck -27.203 0.606893 -2.717
upperneck 25.0296 3.11452 -2.94594
head 12.9168 0.719988 -0.102262
rclavicle -2.94201e-014 -3.4191e-014
rhumerus -16.5164 4.64285 -80.3613
rradius 49.6536
rwrist -18.641
rhand -14.3689 -26.8021
rfingers 7.12502
rthumb 11.7734 -56.4512
lclavicle -2.94201e-014 -3.4191e-014
lhumerus -14.7648 -12.3174 86.3432
lradius 41.4079
lwrist 18.3011
lhand -22.5866 -12.5963
lfingers 7.12502
lthumb 3.84228 17.3488
rfemur -34.7718 -10.9499 13.2117
rtibia 48.786
rfoot -19.7756 -4.04968
rtoes -0.526413
lfemur -30.4209 8.72957 -15.8431
ltibia 49.687
lfoot -23.4346 -1.47619
ltoes 2.2644
531
root 0.129002 16.0299 1.43067 -410.757 93.1426 -419.45
lowerback 30.7423 0.328152 -1.51389
upperback 6.97718 0.63685 -0.0166609
thorax -8.99792 0.611032 0.576638
lowerneck -27.3009 0.606248 -2.76923
upperneck 25.044 3.14387 -2.95633
head 12.9415 0.724273 -0.0919996
rclavicle -5.56597e-015 3.97569e-015
rhumerus -16.4724 4.86039 -80.3243
rradius 49.6079
rwrist -18.6479
rhand -14.3414 -26.8124
rfingers 7.12502
rthumb 11.7999 -56.4599
lclavicle -5.56597e-015 3.97569e-015
lhumerus -14.7221 -12.1094 86.3856
lradius 41.3281
lwrist 18.2162
lhand -22.4473 -12.5918
lfingers 7.12502
lthumb 3.97686 17.3508
rfemur -34.8868 -10.9054 13.1734
rtibia 48.8061
rfoot -19.6878 -4.09322
rtoes -1.07052
lfemur -30.5188 8.74921 -15.8978
ltibia 49.7688
lfoot -23.4925 -1.47386
ltoes 2.39022
532
root 0.134314 16.0273 1.42555 -412.329 93.1391 -420.979
lowerback 30.825 0.350765 -1.73805
upperback 6.92916 0.59467 0.01551
thorax -9.09257 0.595237 0.757633
lowerneck -27.3069 0.67525 -2.80938
upperneck 25.0961 3.2483 -2.91134
head 12.9624 0.771187 -0.0483111
rclavicle -1.61016e-014 -3.1408e-014
rhumerus -16.5184 5.14098 -80.3446
rradius 49.6013
rwrist -18.6678
rhand -14.3172 -26.7885
rfingers 7.12502
rthumb 11.8233 -56.4347
lclavicle -1.61016e-014 -3.1408e-014
lhumerus -14.8431 -11.7563 86.4417
lradius 41.3168
lwrist 18.0273
lhand -22.2869 -12.4849
lfingers 7.12502
lthumb 4.13174 17.4548
rfemur -34.837 -10.8371 13.0888
rtibia 48.8288
rfoot -19.681 -4.10315
rtoes -1.53525
lfemur -30.4577 8.75702 -15.9532
ltibia 49.8434
lfoot -23.5478 -1.42739
ltoes 2.29711
533
root 0.136517 16.0248 1.42069 -412.918 93.0265 -421.55
lowerback 30.8911 0.352098 -1.72224
upperback 6.91909 0.600414 0.0247388
thorax -9.136 0.597729 0.756153
lowerneck -27.5034 0.6608 -2.97311
upperneck 25.1849 3.2427 -2.70064
head 13.0285 0.777169 0.0601625
rclavicle -2.18663e-015 -1.55052e-014
rhumerus -16.4657 5.18885 -80.3801
rradius 49.6062
rwrist -18.6238
rhand -14.216 -27.0581
rfingers 7.12502
rthumb 11.9208 -56.6987
lclavicle -2.18663e-015 -1.55052e-014
lhumerus -14.8737 -11.6436 86.4396
lradius 41.3906
lwrist 17.9267
lhand -22.2382 -12.3798
lfingers 7.12502
lthumb 4.17876 17.559
rfemur -34.813 -10.7169 13.1409
rtibia 48.844
rfoot -19.7127 -4.09811
rtoes -1.45507
lfemur -30.4444 8.7794 -15.8776
ltibia 49.9155
lfoot -23.582 -1.37658
ltoes 2.20846
534
root 0.135417 16.0222 1.41539 -414.262 92.8747 -422.924
lowerback 30.901 0.380046 -1.63879
upperback 6.91991 0.659008 0.0134704
thorax -9.141 0.622764 0.673064
lowerneck -27.6319 0.609882 -3.08958
upperneck 25.1494 3.18 -2.57137
head 13.0337 0.754959 0.118106
rclavicle -2.98177e-015 5.1684e-015
rhumerus -16.4025 5.06719 -80.3994
rradius 49.6067
rwrist -18.5076
rhand -14.1054 -27.3325
rfingers 7.12502
rthumb 12.0275 -56.9669
lclavicle -2.98177e-015 5.1684e-015
lhumerus -14.8545 -11.7704 86.4237
lradius 41.4774
lwrist 17.9693
lhand -22.4359 -12.2507
lfingers 7.12502
lthumb 3.98784 17.6917
rfemur -34.8848 -10.5646 13.2277
rtibia 48.8411
rfoot -19.6617 -4.11733
rtoes -1.64908
lfemur -30.4921 8.85258 -15.8
ltibia 49.9638
lfoot -23.6403 -1.35249
ltoes 2.64781
535
root 0.136853 16.0209 1.40986 -416.224 92.8204 -424.887
lowerback 30.8924 0.405668 -1.68977
upperback 6.90513 0.669762 -0.0171975
thorax -9.15394 0.627724 0.663941
lowerneck -27.515 0.643044 -2.99957
upperneck 25.0062 3.17788 -2.5908
head 12.9541 0.764396 0.0945219
rclavicle 1.07344e-014 -9.54166e-015
rhumerus -16.3963 5.00041 -80.4792
rradius 49.5771
rwrist -18.3698
rhand -14.0707 -27.4669
rfingers 7.12502
rthumb 12.061 -57.0993
lclavicle 1.07344e-014 -9.54166e-015
lhumerus -14.9032 -11.8695 86.388
lradius 41.503
lwrist 18.0644
lhand -22.705 -12.2923
lfingers 7.12502
lthumb 3.72793 17.6549
rfemur -34.9093 -10.4825 13.2063
rtibia 48.8214
rfoot -19.6305 -4.09447
rtoes -1.80064
lfemur -30.4697 8.91499 -15.8308
ltibia 49.9635
lfoot -23.7104 -1.30383
ltoes 2.93175
536
root 0.143508 16.0246 1.40649 -415.036 92.903 -423.628
lowerback 30.8818 0.338288 -1.74508
upperback 6.955 0.569883 -0.0543826
thorax -9.08876 0.583923 0.691587
lowerneck -27.4634 0.693132 -2.83417
upperneck 24.8402 3.17703 -2.64067
head 12.8797 0.776393 0.0470727
rclavicle 1.35174e-014 1.33186e-014
rhumerus -16.2469 5.05386 -80.5897
rradius 49.4553
rwrist -18.3536
rhand -14.056 -27.6314
rfingers 7.12502
rthumb 12.0751 -57.263
lclavicle 1.35174e-014 1.33186e-014
lhumerus -14.8677 -11.8734 86.2771
lradius 41.496
lwrist 18.1237
lhand -22.81 -12.4667
lfingers 7.12502
lthumb 3.62656 17.4822
rfemur -34.7526 -10.5776 13.1298
rtibia 48.7863
rfoot -19.7261 -4.04564
rtoes -1.29041
lfemur -30.3504 8.82952 -15.8756
ltibia 49.9167
lfoot -23.691 -1.26853
ltoes 2.42101
537
root 0.152461 16.0304 1.40433 -411.182 93.092 -419.653
lowerback 30.9291 0.217622 -1.68027
upperback 7.02885 0.444442 -0.0891448
thorax -9.02307 0.52793 0.661263
lowerneck -27.5752 0.691824 -2.67042
upperneck 24.7772 3.13909 -2.75462
head 12.8808 0.758507 -0.0310665
rclavicle 5.96354e-015 2.70347e-014
rhumerus -16.1283 5.04777 -80.6246
rradius 49.3833
rwrist -18.4546
rhand -14.1576 -27.6835
rfingers 7.12502
rthumb 11.9771 -57.3209
lclavicle 5.96354e-015 2.70347e-014
lhumerus -14.7469 -11.9999 86.2025
lradius 41.4761
lwrist 18.1928
lhand -22.8385 -12.3594
lfingers 7.12502
lthumb 3.59904 17.5899
rfemur -34.4601 -10.7829 13.0298
rtibia 48.7535
rfoot -19.8579 -4.03846
rtoes -0.819519
lfemur -30.1933 8.59549 -15.9075
ltibia 49.8518
lfoot -23.6506 -1.28385
ltoes 2.01639
